<svg width="161" height="76" viewBox="0 0 161 76" fill="none" xmlns="http://www.w3.org/2000/svg">
<path d="M160.141 2.29102H89.5775" stroke="#9FA0A0" stroke-width="3" stroke-miterlimit="10"/>
<path d="M160.141 19.1111H89.5775" stroke="#9FA0A0" stroke-miterlimit="10"/>
<path d="M160.141 38H89.5775" stroke="#9FA0A0" stroke-width="3" stroke-miterlimit="10"/>
<path d="M160.141 54.8201H89.5775" stroke="#9FA0A0" stroke-miterlimit="10"/>
<path d="M160.141 73.679H89.5775" stroke="#9FA0A0" stroke-width="3" stroke-miterlimit="10"/>
<path d="M71.4225 2.29102H0.859222" stroke="#9FA0A0" stroke-width="3" stroke-miterlimit="10"/>
<path d="M71.4225 19.1111H0.859222" stroke="#9FA0A0" stroke-miterlimit="10"/>
<path d="M71.4225 38H0.859222" stroke="#9FA0A0" stroke-width="3" stroke-miterlimit="10"/>
<path d="M71.4225 54.8201H0.859222" stroke="#9FA0A0" stroke-miterlimit="10"/>
<path d="M71.4225 73.679H0.859222" stroke="#9FA0A0" stroke-width="3" stroke-miterlimit="10"/>
<path d="M160.141 2.29102H89.5775" stroke="#9FA0A0" stroke-width="3" stroke-miterlimit="10"/>
<path d="M160.141 19.1111H89.5775" stroke="#9FA0A0" stroke-miterlimit="10"/>
<path d="M160.141 38H89.5775" stroke="#9FA0A0" stroke-width="3" stroke-miterlimit="10"/>
<path d="M160.141 54.8201H89.5775" stroke="#9FA0A0" stroke-miterlimit="10"/>
<path d="M160.141 73.679H89.5775" stroke="#9FA0A0" stroke-width="3" stroke-miterlimit="10"/>
<path d="M71.4225 2.29102H0.859222" stroke="#9FA0A0" stroke-width="3" stroke-miterlimit="10"/>
<path d="M71.4225 19.1111H0.859222" stroke="#9FA0A0" stroke-miterlimit="10"/>
<path d="M71.4225 38H0.859222" stroke="#9FA0A0" stroke-width="3" stroke-miterlimit="10"/>
<path d="M71.4225 54.8201H0.859222" stroke="#9FA0A0" stroke-miterlimit="10"/>
<path d="M71.4225 73.679H0.859222" stroke="#9FA0A0" stroke-width="3" stroke-miterlimit="10"/>
</svg>
