<svg width="172" height="93" viewBox="0 0 172 93" fill="none" xmlns="http://www.w3.org/2000/svg">
<path d="M0 10.5587C12.2323 10.5587 12.2323 22.4894 24.4646 22.4894C36.6969 22.4894 36.667 10.5587 48.8993 10.5587C61.1316 10.5587 61.1316 22.4894 73.3639 22.4894C85.5963 22.4894 85.5962 10.5587 97.8286 10.5587C110.061 10.5587 110.061 22.4894 122.293 22.4894C134.525 22.4894 134.555 10.5587 146.788 10.5587C159.02 10.5587 159.02 22.4894 171.252 22.4894" stroke="#C8C8C9" stroke-miterlimit="10"/>
<path d="M0 70.2123C12.2323 70.2123 12.2323 82.143 24.4646 82.143C36.6969 82.143 36.667 70.2123 48.8993 70.2123C61.1316 70.2123 61.1316 82.143 73.3639 82.143C85.5963 82.143 85.5962 70.2123 97.8286 70.2123C110.061 70.2123 110.061 82.143 122.293 82.143C134.525 82.143 134.555 70.2123 146.788 70.2123C159.02 70.2123 159.02 82.143 171.252 82.143" stroke="#C8C8C9" stroke-miterlimit="10"/>
<path d="M0.747696 40.3855C12.98 40.3855 12.98 52.3162 25.2123 52.3162C37.4446 52.3162 37.4446 40.3855 49.647 40.3855C61.8494 40.3855 61.8793 52.3162 74.1116 52.3162C86.3439 52.3162 86.3439 40.3855 98.6062 40.3855C110.868 40.3855 110.809 52.3162 123.041 52.3162C135.273 52.3162 135.303 40.3855 147.535 40.3855C159.768 40.3855 159.768 52.3162 172 52.3162" stroke="#C8C8C9" stroke-miterlimit="10"/>
</svg>
