<svg width="161" height="67" viewBox="0 0 161 67" fill="none" xmlns="http://www.w3.org/2000/svg">
<path d="M0.554657 65.8164L21.2503 44.9364" stroke="#9F9E9F" stroke-miterlimit="10"/>
<path d="M0.703979 44.9364L21.3996 65.8164" stroke="#9F9E9F" stroke-miterlimit="10"/>
<path d="M28.3578 65.8164L49.0534 44.9364" stroke="#9F9E9F" stroke-miterlimit="10"/>
<path d="M28.5072 44.9364L49.2326 65.8164" stroke="#9F9E9F" stroke-miterlimit="10"/>
<path d="M56.161 65.8164L76.8865 44.9364" stroke="#9F9E9F" stroke-miterlimit="10"/>
<path d="M56.3103 44.9364L77.0358 65.8164" stroke="#9F9E9F" stroke-miterlimit="10"/>
<path d="M83.9642 65.8164L104.69 44.9364" stroke="#9F9E9F" stroke-miterlimit="10"/>
<path d="M84.1434 44.9364L104.839 65.8164" stroke="#9F9E9F" stroke-miterlimit="10"/>
<path d="M111.797 65.8164L132.493 44.9364" stroke="#9F9E9F" stroke-miterlimit="10"/>
<path d="M111.947 44.9364L132.642 65.8164" stroke="#9F9E9F" stroke-miterlimit="10"/>
<path d="M139.6 65.8164L160.326 44.9364" stroke="#9F9E9F" stroke-miterlimit="10"/>
<path d="M139.75 44.9364L160.475 65.8164" stroke="#9F9E9F" stroke-miterlimit="10"/>
<path d="M0.554657 21.6494L21.2503 0.769409" stroke="#9F9E9F" stroke-miterlimit="10"/>
<path d="M0.703979 0.769409L21.3996 21.6494" stroke="#9F9E9F" stroke-miterlimit="10"/>
<path d="M28.3578 21.6494L49.0534 0.769409" stroke="#9F9E9F" stroke-miterlimit="10"/>
<path d="M28.5072 0.769409L49.2326 21.6494" stroke="#9F9E9F" stroke-miterlimit="10"/>
<path d="M56.161 21.6494L76.8865 0.769409" stroke="#9F9E9F" stroke-miterlimit="10"/>
<path d="M56.3103 0.769409L77.0358 21.6494" stroke="#9F9E9F" stroke-miterlimit="10"/>
<path d="M83.9642 21.6494L104.69 0.769409" stroke="#9F9E9F" stroke-miterlimit="10"/>
<path d="M84.1434 0.769409L104.839 21.6494" stroke="#9F9E9F" stroke-miterlimit="10"/>
<path d="M111.797 21.6494L132.493 0.769409" stroke="#9F9E9F" stroke-miterlimit="10"/>
<path d="M111.947 0.769409L132.642 21.6494" stroke="#9F9E9F" stroke-miterlimit="10"/>
<path d="M139.6 21.6494L160.326 0.769409" stroke="#9F9E9F" stroke-miterlimit="10"/>
<path d="M139.75 0.769409L160.475 21.6494" stroke="#9F9E9F" stroke-miterlimit="10"/>
</svg>
