<svg width="149" height="86" viewBox="0 0 149 86" fill="none" xmlns="http://www.w3.org/2000/svg">
<path d="M10.1775 20.4312C15.5514 20.4312 19.9079 16.0479 19.9079 10.6408C19.9079 5.23376 15.5514 0.850464 10.1775 0.850464C4.80348 0.850464 0.446999 5.23376 0.446999 10.6408C0.446999 16.0479 4.80348 20.4312 10.1775 20.4312Z" fill="#9FA0A0"/>
<path d="M74.5 20.4312C79.874 20.4312 84.2305 16.0479 84.2305 10.6408C84.2305 5.23376 79.874 0.850464 74.5 0.850464C69.126 0.850464 64.7695 5.23376 64.7695 10.6408C64.7695 16.0479 69.126 20.4312 74.5 20.4312Z" fill="#9FA0A0"/>
<path d="M42.3537 20.4312C47.7276 20.4312 52.0841 16.0479 52.0841 10.6408C52.0841 5.23376 47.7276 0.850464 42.3537 0.850464C36.9797 0.850464 32.6232 5.23376 32.6232 10.6408C32.6232 16.0479 36.9797 20.4312 42.3537 20.4312Z" fill="#9FA0A0"/>
<path d="M74.5 20.4312C79.874 20.4312 84.2305 16.0479 84.2305 10.6408C84.2305 5.23376 79.874 0.850464 74.5 0.850464C69.126 0.850464 64.7695 5.23376 64.7695 10.6408C64.7695 16.0479 69.126 20.4312 74.5 20.4312Z" fill="#9FA0A0"/>
<path d="M138.793 20.4312C144.167 20.4312 148.523 16.0479 148.523 10.6408C148.523 5.23376 144.167 0.850464 138.793 0.850464C133.419 0.850464 129.062 5.23376 129.062 10.6408C129.062 16.0479 133.419 20.4312 138.793 20.4312Z" fill="#9FA0A0"/>
<path d="M106.646 20.4312C112.02 20.4312 116.377 16.0479 116.377 10.6408C116.377 5.23376 112.02 0.850464 106.646 0.850464C101.272 0.850464 96.9159 5.23376 96.9159 10.6408C96.9159 16.0479 101.272 20.4312 106.646 20.4312Z" fill="#9FA0A0"/>
<path d="M10.1775 52.8054C15.5514 52.8054 19.9079 48.4221 19.9079 43.0151C19.9079 37.608 15.5514 33.2247 10.1775 33.2247C4.80348 33.2247 0.446999 37.608 0.446999 43.0151C0.446999 48.4221 4.80348 52.8054 10.1775 52.8054Z" fill="#9FA0A0"/>
<path d="M74.5 52.8054C79.874 52.8054 84.2305 48.4221 84.2305 43.0151C84.2305 37.608 79.874 33.2247 74.5 33.2247C69.126 33.2247 64.7695 37.608 64.7695 43.0151C64.7695 48.4221 69.126 52.8054 74.5 52.8054Z" fill="#9FA0A0"/>
<path d="M42.3537 52.8054C47.7276 52.8054 52.0841 48.4221 52.0841 43.0151C52.0841 37.608 47.7276 33.2247 42.3537 33.2247C36.9797 33.2247 32.6232 37.608 32.6232 43.0151C32.6232 48.4221 36.9797 52.8054 42.3537 52.8054Z" fill="#9FA0A0"/>
<path d="M74.5 52.8054C79.874 52.8054 84.2305 48.4221 84.2305 43.0151C84.2305 37.608 79.874 33.2247 74.5 33.2247C69.126 33.2247 64.7695 37.608 64.7695 43.0151C64.7695 48.4221 69.126 52.8054 74.5 52.8054Z" fill="#9FA0A0"/>
<path d="M138.793 52.8054C144.167 52.8054 148.523 48.4221 148.523 43.0151C148.523 37.608 144.167 33.2247 138.793 33.2247C133.419 33.2247 129.062 37.608 129.062 43.0151C129.062 48.4221 133.419 52.8054 138.793 52.8054Z" fill="#9FA0A0"/>
<path d="M106.646 52.8054C112.02 52.8054 116.377 48.4221 116.377 43.0151C116.377 37.608 112.02 33.2247 106.646 33.2247C101.272 33.2247 96.9159 37.608 96.9159 43.0151C96.9159 48.4221 101.272 52.8054 106.646 52.8054Z" fill="#9FA0A0"/>
<path d="M10.1775 85.1496C15.5514 85.1496 19.9079 80.7663 19.9079 75.3592C19.9079 69.9521 15.5514 65.5688 10.1775 65.5688C4.80348 65.5688 0.446999 69.9521 0.446999 75.3592C0.446999 80.7663 4.80348 85.1496 10.1775 85.1496Z" fill="#9FA0A0"/>
<path d="M74.5 85.1496C79.874 85.1496 84.2305 80.7663 84.2305 75.3592C84.2305 69.9521 79.874 65.5688 74.5 65.5688C69.126 65.5688 64.7695 69.9521 64.7695 75.3592C64.7695 80.7663 69.126 85.1496 74.5 85.1496Z" fill="#9FA0A0"/>
<path d="M42.3537 85.1496C47.7276 85.1496 52.0841 80.7663 52.0841 75.3592C52.0841 69.9521 47.7276 65.5688 42.3537 65.5688C36.9797 65.5688 32.6232 69.9521 32.6232 75.3592C32.6232 80.7663 36.9797 85.1496 42.3537 85.1496Z" fill="#9FA0A0"/>
<path d="M74.5 85.1496C79.874 85.1496 84.2305 80.7663 84.2305 75.3592C84.2305 69.9521 79.874 65.5688 74.5 65.5688C69.126 65.5688 64.7695 69.9521 64.7695 75.3592C64.7695 80.7663 69.126 85.1496 74.5 85.1496Z" fill="#9FA0A0"/>
<path d="M138.793 85.1496C144.167 85.1496 148.523 80.7663 148.523 75.3592C148.523 69.9521 144.167 65.5688 138.793 65.5688C133.419 65.5688 129.062 69.9521 129.062 75.3592C129.062 80.7663 133.419 85.1496 138.793 85.1496Z" fill="#9FA0A0"/>
<path d="M106.646 85.1496C112.02 85.1496 116.377 80.7663 116.377 75.3592C116.377 69.9521 112.02 65.5688 106.646 65.5688C101.272 65.5688 96.9159 69.9521 96.9159 75.3592C96.9159 80.7663 101.272 85.1496 106.646 85.1496Z" fill="#9FA0A0"/>
</svg>
