<svg width="182" height="73" viewBox="0 0 182 73" fill="none" xmlns="http://www.w3.org/2000/svg">
<path d="M28.3808 0.380005H0.496826V28.0755H28.3808V0.380005Z" fill="#C8C7C7"/>
<path d="M103.476 0.380005H75.592V28.0755H103.476V0.380005Z" fill="#C8C7C7"/>
<path d="M65.9284 0.380005H38.0444V28.0755H65.9284V0.380005Z" fill="#C8C7C7"/>
<path d="M144.015 0.380005H116.131V28.0755H144.015V0.380005Z" fill="#C8C7C7"/>
<path d="M181.533 0.380005H153.649V28.0755H181.533V0.380005Z" fill="#C8C7C7"/>
<path d="M103.476 44.8354H75.592V72.5309H103.476V44.8354Z" fill="#C8C7C7"/>
<path d="M65.9284 44.8354H38.0444V72.5309H65.9284V44.8354Z" fill="#C8C7C7"/>
<path d="M28.3808 44.8354H0.496826V72.5309H28.3808V44.8354Z" fill="#C8C7C7"/>
<path d="M181.533 44.8354H153.649V72.5309H181.533V44.8354Z" fill="#C8C7C7"/>
<path d="M144.015 44.8354H116.131V72.5309H144.015V44.8354Z" fill="#C8C7C7"/>
</svg>
