<svg width="160" height="94" viewBox="0 0 160 94" fill="none" xmlns="http://www.w3.org/2000/svg">
<mask id="mask0_156_304" style="mask-type:luminance" maskUnits="userSpaceOnUse" x="0" y="0" width="160" height="94">
<path d="M159.506 0.454346H0.671188V93.5424H159.506V0.454346Z" fill="white"/>
</mask>
<g mask="url(#mask0_156_304)">
<path d="M158.549 8.19173V1.52979L151.88 1.52979V8.19173H158.549Z" fill="#C8C8C9"/>
<path d="M141.861 8.19173V1.52979L135.192 1.52979V8.19173H141.861Z" fill="#C8C8C9"/>
<path d="M125.173 8.22164V1.55969L118.504 1.55969V8.22164H125.173Z" fill="#C8C8C9"/>
<path d="M108.485 8.22164V1.55969L101.816 1.55969V8.22164H108.485Z" fill="#C8C8C9"/>
<path d="M91.7973 8.22164V1.55969L85.1281 1.55969V8.22164H91.7973Z" fill="#C8C8C9"/>
<path d="M75.1093 8.22164V1.55969L68.4401 1.55969V8.22164H75.1093Z" fill="#C8C8C9"/>
<path d="M58.4213 8.22164V1.55969L51.7521 1.55969V8.22164H58.4213Z" fill="#C8C8C9"/>
<path d="M41.7333 8.22164V1.55969L35.0641 1.55969V8.22164H41.7333Z" fill="#C8C8C9"/>
<path d="M25.0453 8.22164V1.55969L18.376 1.55969V8.22164H25.0453Z" fill="#C8C8C9"/>
<path d="M8.35724 8.22164V1.55969L1.68802 1.55969V8.22164H8.35724Z" fill="#C8C8C9"/>
<path d="M158.579 22.1728V15.5109H151.91V22.1728H158.579Z" fill="#C8C8C9"/>
<path d="M141.891 22.1728V15.5109H135.222V22.1728H141.891Z" fill="#C8C8C9"/>
<path d="M125.203 22.1728V15.5109H118.534V22.1728H125.203Z" fill="#C8C8C9"/>
<path d="M108.515 22.1728V15.5109H101.846V22.1728H108.515Z" fill="#C8C8C9"/>
<path d="M91.8273 22.1728V15.5109H85.158V22.1728H91.8273Z" fill="#C8C8C9"/>
<path d="M75.1392 22.1728V15.5109H68.47V22.1728H75.1392Z" fill="#C8C8C9"/>
<path d="M58.4512 22.1728V15.5109H51.782V22.1728H58.4512Z" fill="#C8C8C9"/>
<path d="M41.7632 22.1728V15.5109H35.094V22.1728H41.7632Z" fill="#C8C8C9"/>
<path d="M25.0752 22.1728V15.5109H18.4059V22.1728H25.0752Z" fill="#C8C8C9"/>
<path d="M8.38715 22.1728V15.5109H1.71793V22.1728H8.38715Z" fill="#C8C8C9"/>
<path d="M158.549 36.154V29.4921H151.88V36.154H158.549Z" fill="#C8C8C9"/>
<path d="M141.861 36.154V29.4921H135.192V36.154H141.861Z" fill="#C8C8C9"/>
<path d="M125.173 36.154V29.4921H118.504V36.154H125.173Z" fill="#C8C8C9"/>
<path d="M108.485 36.154V29.4921H101.816V36.154H108.485Z" fill="#C8C8C9"/>
<path d="M91.7973 36.154V29.4921H85.1281V36.154H91.7973Z" fill="#C8C8C9"/>
<path d="M75.1093 36.154V29.4921H68.4401V36.154H75.1093Z" fill="#C8C8C9"/>
<path d="M58.4213 36.154V29.4921H51.7521V36.154H58.4213Z" fill="#C8C8C9"/>
<path d="M41.7333 36.154V29.4921H35.0641V36.154H41.7333Z" fill="#C8C8C9"/>
<path d="M25.0453 36.154V29.4921H18.376V36.154H25.0453Z" fill="#C8C8C9"/>
<path d="M8.35725 36.154V29.4921H1.68802V36.154H8.35725Z" fill="#C8C8C9"/>
<path d="M158.549 50.1053V43.4434H151.88V50.1053H158.549Z" fill="#C8C8C9"/>
<path d="M141.861 50.1053V43.4434H135.192V50.1053H141.861Z" fill="#C8C8C9"/>
<path d="M125.173 50.1053V43.4434H118.504V50.1053H125.173Z" fill="#C8C8C9"/>
<path d="M108.485 50.1053V43.4434H101.816V50.1053H108.485Z" fill="#C8C8C9"/>
<path d="M91.7973 50.1053V43.4434H85.1281V50.1053H91.7973Z" fill="#C8C8C9"/>
<path d="M75.1093 50.1352V43.4733H68.4401V50.1352H75.1093Z" fill="#C8C8C9"/>
<path d="M58.4213 50.1352V43.4733H51.7521V50.1352H58.4213Z" fill="#C8C8C9"/>
<path d="M41.7333 50.1352V43.4733H35.0641V50.1352H41.7333Z" fill="#C8C8C9"/>
<path d="M25.0453 50.1352V43.4733H18.376V50.1352H25.0453Z" fill="#C8C8C9"/>
<path d="M8.35725 50.1352V43.4733H1.68802V50.1352H8.35725Z" fill="#C8C8C9"/>
<path d="M158.579 64.0864V57.4244H151.91V64.0864H158.579Z" fill="#C8C8C9"/>
<path d="M141.891 64.0864V57.4244H135.222V64.0864H141.891Z" fill="#C8C8C9"/>
<path d="M125.203 64.0864V57.4244H118.534V64.0864H125.203Z" fill="#C8C8C9"/>
<path d="M108.515 64.0864V57.4244H101.846V64.0864H108.515Z" fill="#C8C8C9"/>
<path d="M91.8273 64.0864V57.4244H85.158V64.0864H91.8273Z" fill="#C8C8C9"/>
<path d="M75.1392 64.0864V57.4244H68.47V64.0864H75.1392Z" fill="#C8C8C9"/>
<path d="M58.4512 64.0864V57.4244H51.782V64.0864H58.4512Z" fill="#C8C8C9"/>
<path d="M41.7632 64.0864V57.4244H35.094V64.0864H41.7632Z" fill="#C8C8C9"/>
<path d="M25.0752 64.0864V57.4244H18.406V64.0864H25.0752Z" fill="#C8C8C9"/>
<path d="M8.38716 64.0864V57.4244H1.71793V64.0864H8.38716Z" fill="#C8C8C9"/>
<path d="M158.549 78.0675V71.4055H151.88V78.0675H158.549Z" fill="#C8C8C9"/>
<path d="M141.861 78.0675V71.4055H135.192V78.0675H141.861Z" fill="#C8C8C9"/>
<path d="M125.173 78.0675V71.4055H118.504V78.0675H125.173Z" fill="#C8C8C9"/>
<path d="M108.485 78.0675V71.4055H101.816V78.0675H108.485Z" fill="#C8C8C9"/>
<path d="M91.7973 78.0675V71.4055H85.1281V78.0675H91.7973Z" fill="#C8C8C9"/>
<path d="M75.1093 78.0675V71.4055H68.4401V78.0675H75.1093Z" fill="#C8C8C9"/>
<path d="M58.4213 78.0675V71.4055H51.7521V78.0675H58.4213Z" fill="#C8C8C9"/>
<path d="M41.7333 78.0675V71.4055H35.0641V78.0675H41.7333Z" fill="#C8C8C9"/>
<path d="M25.0453 78.0675V71.4055H18.376V78.0675H25.0453Z" fill="#C8C8C9"/>
<path d="M8.35725 78.0675V71.4055H1.68802V78.0675H8.35725Z" fill="#C8C8C9"/>
<path d="M158.549 92.0188V85.3568H151.88V92.0188H158.549Z" fill="#C8C8C9"/>
<path d="M141.861 92.0188V85.3568H135.192V92.0188H141.861Z" fill="#C8C8C9"/>
<path d="M125.173 92.0188V85.3568H118.504V92.0188H125.173Z" fill="#C8C8C9"/>
<path d="M108.485 92.0188V85.3568H101.816V92.0188H108.485Z" fill="#C8C8C9"/>
<path d="M91.7973 92.0188V85.3568H85.1281V92.0188H91.7973Z" fill="#C8C8C9"/>
<path d="M75.1093 92.0188V85.3568H68.4401V92.0188H75.1093Z" fill="#C8C8C9"/>
<path d="M58.4213 92.0188V85.3568H51.7521V92.0188H58.4213Z" fill="#C8C8C9"/>
<path d="M41.7333 92.0188V85.3568H35.0641V92.0188H41.7333Z" fill="#C8C8C9"/>
<path d="M25.0453 92.0487V85.3867H18.376V92.0487H25.0453Z" fill="#C8C8C9"/>
<path d="M8.35725 92.0487V85.3867H1.68801V92.0487H8.35725Z" fill="#C8C8C9"/>
</g>
</svg>
