<svg width="164" height="96" viewBox="0 0 164 96" fill="none" xmlns="http://www.w3.org/2000/svg">
<path d="M148.159 17.7478V16.4585L162.29 8.99293L148.159 1.9171V0.657837L163.989 8.75308V9.53262L148.159 17.7478Z" fill="#9FA0A0"/>
<path d="M123.625 17.7478V16.4585L137.755 8.99293L123.625 1.9171V0.657837L139.454 8.75308V9.53262L123.625 17.7478Z" fill="#9FA0A0"/>
<path d="M99.1198 17.7478V16.4585L113.25 8.99293L99.1198 1.9171V0.657837L114.92 8.75308V9.53262L99.1198 17.7478Z" fill="#9FA0A0"/>
<path d="M74.764 17.7478V16.4585L88.8945 8.99293L74.764 1.9171V0.657837L90.5938 8.75308V9.53262L74.764 17.7478Z" fill="#9FA0A0"/>
<path d="M50.0803 17.7478V16.4585L64.2108 8.99293L50.0803 1.9171V0.657837L65.8802 8.75308V9.53262L50.0803 17.7478Z" fill="#9FA0A0"/>
<path d="M25.5456 17.7478V16.4585L39.7358 8.99293L25.5456 1.9171V0.657837L41.3754 8.75308V9.53262L25.5456 17.7478Z" fill="#9FA0A0"/>
<path d="M0.98114 17.7478V16.4585L15.1713 8.99293L0.98114 1.9171V0.657837L16.7811 8.75308V9.53262L0.98114 17.7478Z" fill="#9FA0A0"/>
<path d="M148.159 43.6226V42.3034L162.29 34.9277L148.159 27.7919V26.5027L163.989 34.5979V35.3775L148.159 43.6226Z" fill="#9FA0A0"/>
<path d="M123.625 43.6226V42.3034L137.755 34.9277L123.625 27.7919V26.5027L139.454 34.5979V35.3775L123.625 43.6226Z" fill="#9FA0A0"/>
<path d="M99.1198 43.6226V42.3034L113.25 34.9277L99.1198 27.7919V26.5027L114.92 34.5979V35.3775L99.1198 43.6226Z" fill="#9FA0A0"/>
<path d="M74.764 43.6226V42.3034L88.8945 34.9277L74.764 27.7919V26.5027L90.5938 34.5979V35.3775L74.764 43.6226Z" fill="#9FA0A0"/>
<path d="M50.0803 43.6226V42.3034L64.2108 34.9277L50.0803 27.7919V26.5027L65.8802 34.5979V35.3775L50.0803 43.6226Z" fill="#9FA0A0"/>
<path d="M25.5456 43.6226V42.3034L39.7358 34.9277L25.5456 27.7919V26.5027L41.3754 34.5979V35.3775L25.5456 43.6226Z" fill="#9FA0A0"/>
<path d="M0.98114 43.6226V42.3034L15.1117 34.9277L0.98114 27.7919V26.5027L16.7811 34.5979V35.3775L0.98114 43.6226Z" fill="#9FA0A0"/>
<path d="M148.159 69.4674V68.1781L162.29 60.8025L148.159 53.6367V52.3774L163.989 60.4727V61.2522L148.159 69.4674Z" fill="#9FA0A0"/>
<path d="M123.625 69.4674V68.1781L137.755 60.8025L123.625 53.6367V52.3774L139.454 60.4727V61.2522L123.625 69.4674Z" fill="#9FA0A0"/>
<path d="M99.1198 69.4674V68.1781L113.25 60.8025L99.1198 53.6367V52.3774L114.92 60.4727V61.2522L99.1198 69.4674Z" fill="#9FA0A0"/>
<path d="M74.764 69.4674V68.1781L88.8945 60.8025L74.764 53.6367V52.3774L90.5938 60.4727V61.2522L74.764 69.4674Z" fill="#9FA0A0"/>
<path d="M50.0803 69.4674V68.1781L64.2108 60.8025L50.0803 53.6367V52.3774L65.8802 60.4727V61.2522L50.0803 69.4674Z" fill="#9FA0A0"/>
<path d="M25.5456 69.4674V68.1781L39.7358 60.8025L25.5456 53.6367V52.3774L41.3754 60.4727V61.2522L25.5456 69.4674Z" fill="#9FA0A0"/>
<path d="M0.98114 69.4674V68.1781L15.1117 60.8025L0.98114 53.6367V52.3774L16.7811 60.4727V61.2522L0.98114 69.4674Z" fill="#9FA0A0"/>
<path d="M148.159 95.3421V94.0229L162.29 86.6472L148.159 79.5114V78.2222L163.989 86.3174V87.0969L148.159 95.3421Z" fill="#9FA0A0"/>
<path d="M123.625 95.3421V94.0229L137.755 86.6472L123.625 79.5114V78.2222L139.454 86.3174V87.0969L123.625 95.3421Z" fill="#9FA0A0"/>
<path d="M99.1198 95.3421V94.0229L113.25 86.6472L99.1198 79.5114V78.2222L114.92 86.3174V87.0969L99.1198 95.3421Z" fill="#9FA0A0"/>
<path d="M74.764 95.3421V94.0229L88.8945 86.6472L74.764 79.5114V78.2222L90.5938 86.3174V87.0969L74.764 95.3421Z" fill="#9FA0A0"/>
<path d="M50.0803 95.3421V94.0229L64.2108 86.6472L50.0803 79.5114V78.2222L65.8802 86.3174V87.0969L50.0803 95.3421Z" fill="#9FA0A0"/>
<path d="M25.5456 95.3421V94.0229L39.7358 86.6472L25.5456 79.5114V78.2222L41.3754 86.3174V87.0969L25.5456 95.3421Z" fill="#9FA0A0"/>
<path d="M0.98114 95.3421V94.0229L15.1713 86.6472L0.98114 79.5114V78.2222L16.7811 86.3174V87.0969L0.98114 95.3421Z" fill="#9FA0A0"/>
</svg>
