<svg width="151" height="86" viewBox="0 0 151 86" fill="none" xmlns="http://www.w3.org/2000/svg">
<path d="M11.1775 20.4312C16.5514 20.4312 20.9079 16.0479 20.9079 10.6408C20.9079 5.23376 16.5514 0.850464 11.1775 0.850464C5.80348 0.850464 1.447 5.23376 1.447 10.6408C1.447 16.0479 5.80348 20.4312 11.1775 20.4312Z" stroke="#9FA0A0" stroke-miterlimit="10"/>
<path d="M75.5 20.4312C80.874 20.4312 85.2305 16.0479 85.2305 10.6408C85.2305 5.23376 80.874 0.850464 75.5 0.850464C70.126 0.850464 65.7695 5.23376 65.7695 10.6408C65.7695 16.0479 70.126 20.4312 75.5 20.4312Z" stroke="#9FA0A0" stroke-miterlimit="10"/>
<path d="M43.3537 20.4312C48.7276 20.4312 53.0841 16.0479 53.0841 10.6408C53.0841 5.23376 48.7276 0.850464 43.3537 0.850464C37.9797 0.850464 33.6232 5.23376 33.6232 10.6408C33.6232 16.0479 37.9797 20.4312 43.3537 20.4312Z" stroke="#9FA0A0" stroke-miterlimit="10"/>
<path d="M75.5 20.4312C80.874 20.4312 85.2305 16.0479 85.2305 10.6408C85.2305 5.23376 80.874 0.850464 75.5 0.850464C70.126 0.850464 65.7695 5.23376 65.7695 10.6408C65.7695 16.0479 70.126 20.4312 75.5 20.4312Z" stroke="#9FA0A0" stroke-miterlimit="10"/>
<path d="M139.793 20.4312C145.167 20.4312 149.523 16.0479 149.523 10.6408C149.523 5.23376 145.167 0.850464 139.793 0.850464C134.419 0.850464 130.062 5.23376 130.062 10.6408C130.062 16.0479 134.419 20.4312 139.793 20.4312Z" stroke="#9FA0A0" stroke-miterlimit="10"/>
<path d="M107.646 20.4312C113.02 20.4312 117.377 16.0479 117.377 10.6408C117.377 5.23376 113.02 0.850464 107.646 0.850464C102.272 0.850464 97.9159 5.23376 97.9159 10.6408C97.9159 16.0479 102.272 20.4312 107.646 20.4312Z" stroke="#9FA0A0" stroke-miterlimit="10"/>
<path d="M11.1775 52.8054C16.5514 52.8054 20.9079 48.4221 20.9079 43.0151C20.9079 37.608 16.5514 33.2247 11.1775 33.2247C5.80348 33.2247 1.447 37.608 1.447 43.0151C1.447 48.4221 5.80348 52.8054 11.1775 52.8054Z" stroke="#9FA0A0" stroke-miterlimit="10"/>
<path d="M75.5 52.8054C80.874 52.8054 85.2305 48.4221 85.2305 43.0151C85.2305 37.608 80.874 33.2247 75.5 33.2247C70.126 33.2247 65.7695 37.608 65.7695 43.0151C65.7695 48.4221 70.126 52.8054 75.5 52.8054Z" stroke="#9FA0A0" stroke-miterlimit="10"/>
<path d="M43.3537 52.8054C48.7276 52.8054 53.0841 48.4221 53.0841 43.0151C53.0841 37.608 48.7276 33.2247 43.3537 33.2247C37.9797 33.2247 33.6232 37.608 33.6232 43.0151C33.6232 48.4221 37.9797 52.8054 43.3537 52.8054Z" stroke="#9FA0A0" stroke-miterlimit="10"/>
<path d="M75.5 52.8054C80.874 52.8054 85.2305 48.4221 85.2305 43.0151C85.2305 37.608 80.874 33.2247 75.5 33.2247C70.126 33.2247 65.7695 37.608 65.7695 43.0151C65.7695 48.4221 70.126 52.8054 75.5 52.8054Z" stroke="#9FA0A0" stroke-miterlimit="10"/>
<path d="M139.793 52.8054C145.167 52.8054 149.523 48.4221 149.523 43.0151C149.523 37.608 145.167 33.2247 139.793 33.2247C134.419 33.2247 130.062 37.608 130.062 43.0151C130.062 48.4221 134.419 52.8054 139.793 52.8054Z" stroke="#9FA0A0" stroke-miterlimit="10"/>
<path d="M107.646 52.8054C113.02 52.8054 117.377 48.4221 117.377 43.0151C117.377 37.608 113.02 33.2247 107.646 33.2247C102.272 33.2247 97.9159 37.608 97.9159 43.0151C97.9159 48.4221 102.272 52.8054 107.646 52.8054Z" stroke="#9FA0A0" stroke-miterlimit="10"/>
<path d="M11.1775 85.1496C16.5514 85.1496 20.9079 80.7663 20.9079 75.3592C20.9079 69.9521 16.5514 65.5688 11.1775 65.5688C5.80348 65.5688 1.447 69.9521 1.447 75.3592C1.447 80.7663 5.80348 85.1496 11.1775 85.1496Z" stroke="#9FA0A0" stroke-miterlimit="10"/>
<path d="M75.5 85.1496C80.874 85.1496 85.2305 80.7663 85.2305 75.3592C85.2305 69.9521 80.874 65.5688 75.5 65.5688C70.126 65.5688 65.7695 69.9521 65.7695 75.3592C65.7695 80.7663 70.126 85.1496 75.5 85.1496Z" stroke="#9FA0A0" stroke-miterlimit="10"/>
<path d="M43.3537 85.1496C48.7276 85.1496 53.0841 80.7663 53.0841 75.3592C53.0841 69.9521 48.7276 65.5688 43.3537 65.5688C37.9797 65.5688 33.6232 69.9521 33.6232 75.3592C33.6232 80.7663 37.9797 85.1496 43.3537 85.1496Z" stroke="#9FA0A0" stroke-miterlimit="10"/>
<path d="M75.5 85.1496C80.874 85.1496 85.2305 80.7663 85.2305 75.3592C85.2305 69.9521 80.874 65.5688 75.5 65.5688C70.126 65.5688 65.7695 69.9521 65.7695 75.3592C65.7695 80.7663 70.126 85.1496 75.5 85.1496Z" stroke="#9FA0A0" stroke-miterlimit="10"/>
<path d="M139.793 85.1496C145.167 85.1496 149.523 80.7663 149.523 75.3592C149.523 69.9521 145.167 65.5688 139.793 65.5688C134.419 65.5688 130.062 69.9521 130.062 75.3592C130.062 80.7663 134.419 85.1496 139.793 85.1496Z" stroke="#9FA0A0" stroke-miterlimit="10"/>
<path d="M107.646 85.1496C113.02 85.1496 117.377 80.7663 117.377 75.3592C117.377 69.9521 113.02 65.5688 107.646 65.5688C102.272 65.5688 97.9159 69.9521 97.9159 75.3592C97.9159 80.7663 102.272 85.1496 107.646 85.1496Z" stroke="#9FA0A0" stroke-miterlimit="10"/>
</svg>
