<svg width="189" height="53" viewBox="0 0 189 53" fill="none" xmlns="http://www.w3.org/2000/svg">
<line y1="30.5" x2="31" y2="30.5" stroke="black" stroke-width="3"/>
<line x1="158" y1="30.5" x2="189" y2="30.5" stroke="black" stroke-width="3"/>
<path d="M63.8949 49H59.2784L72.6307 12.6364H77.1761L90.5284 49H85.9119L75.0455 18.3892H74.7614L63.8949 49ZM65.5994 34.7955H84.2074V38.7017H65.5994V34.7955ZM130.141 21.7273C129.928 19.928 129.064 18.5312 127.549 17.5369C126.034 16.5426 124.175 16.0455 121.974 16.0455C120.364 16.0455 118.955 16.3059 117.748 16.8267C116.552 17.3475 115.617 18.0637 114.942 18.9751C114.28 19.8866 113.948 20.9223 113.948 22.0824C113.948 23.053 114.179 23.8875 114.641 24.5859C115.114 25.2725 115.718 25.8466 116.452 26.3082C117.186 26.758 117.955 27.1309 118.76 27.4268C119.565 27.7109 120.305 27.9418 120.979 28.1193L124.673 29.1136C125.62 29.3622 126.673 29.7055 127.833 30.1435C129.005 30.5814 130.124 31.1792 131.189 31.9368C132.266 32.6825 133.154 33.6413 133.852 34.8132C134.551 35.9851 134.9 37.4233 134.9 39.1278C134.9 41.0928 134.385 42.8684 133.355 44.4545C132.337 46.0407 130.846 47.3014 128.881 48.2365C126.928 49.1716 124.554 49.6392 121.761 49.6392C119.156 49.6392 116.902 49.219 114.996 48.3786C113.102 47.5381 111.61 46.3662 110.521 44.8629C109.444 43.3596 108.835 41.6136 108.692 39.625H113.238C113.356 40.9981 113.818 42.1345 114.623 43.0341C115.44 43.9219 116.469 44.5848 117.712 45.0227C118.967 45.4489 120.317 45.6619 121.761 45.6619C123.442 45.6619 124.951 45.3897 126.288 44.8452C127.626 44.2888 128.685 43.5194 129.467 42.5369C130.248 41.5426 130.638 40.3826 130.638 39.0568C130.638 37.8494 130.301 36.867 129.626 36.1094C128.952 35.3518 128.064 34.7363 126.963 34.2628C125.862 33.7893 124.673 33.375 123.394 33.0199L118.92 31.7415C116.079 30.9247 113.83 29.7588 112.173 28.2436C110.515 26.7285 109.687 24.7457 109.687 22.2955C109.687 20.2595 110.237 18.4839 111.338 16.9688C112.451 15.4418 113.942 14.258 115.812 13.4176C117.695 12.5653 119.796 12.1392 122.116 12.1392C124.46 12.1392 126.543 12.5594 128.366 13.3999C130.189 14.2285 131.633 15.3648 132.698 16.8089C133.775 18.2531 134.344 19.8925 134.403 21.7273H130.141Z" fill="black"/>
</svg>
