<svg width="40" height="40" viewBox="0 0 40 40" fill="none" xmlns="http://www.w3.org/2000/svg">
<circle cx="20" cy="20" r="19" stroke="black" stroke-width="2"/>
<path d="M14.762 30V11.0909H21.502C22.9732 11.0909 24.1919 11.3587 25.1583 11.8942C26.1247 12.4297 26.8479 13.1622 27.328 14.0916C27.8082 15.0149 28.0482 16.0552 28.0482 17.2124C28.0482 18.3757 27.8051 19.4221 27.3188 20.3516C26.8387 21.2749 26.1124 22.0073 25.1398 22.549C24.1734 23.0845 22.9578 23.3523 21.4928 23.3523H16.8579V20.9332H21.2343C22.1637 20.9332 22.9178 20.7732 23.4964 20.4531C24.075 20.1269 24.4997 19.6837 24.7705 19.1236C25.0413 18.5634 25.1768 17.9264 25.1768 17.2124C25.1768 16.4983 25.0413 15.8643 24.7705 15.3104C24.4997 14.7564 24.0719 14.3224 23.4871 14.0085C22.9085 13.6946 22.1453 13.5376 21.1974 13.5376H17.615V30H14.762Z" fill="black"/>
</svg>
