<svg width="40" height="40" viewBox="0 0 40 40" fill="none" xmlns="http://www.w3.org/2000/svg">
<circle cx="20" cy="20" r="19" stroke="black" stroke-width="2"/>
<path d="M14.5716 30V11.0909H21.4963C22.8381 11.0909 23.9492 11.3125 24.8294 11.7557C25.7096 12.1927 26.3682 12.7867 26.8052 13.5376C27.2422 14.2824 27.4608 15.1226 27.4608 16.0582C27.4608 16.8461 27.3161 17.5109 27.0268 18.0526C26.7375 18.5881 26.3497 19.0189 25.8635 19.3452C25.3833 19.6652 24.854 19.8991 24.2754 20.0469V20.2315C24.9032 20.2623 25.5157 20.4654 26.1127 20.8409C26.716 21.2102 27.2145 21.7365 27.6085 22.4197C28.0024 23.103 28.1994 23.9339 28.1994 24.9126C28.1994 25.879 27.9717 26.7469 27.5162 27.5163C27.0668 28.2796 26.3713 28.8859 25.4295 29.3352C24.4877 29.7784 23.2844 30 21.8194 30H14.5716ZM17.4245 27.5533H21.5424C22.9089 27.5533 23.8876 27.2886 24.4785 26.7592C25.0694 26.2299 25.3649 25.5682 25.3649 24.7741C25.3649 24.1771 25.2141 23.6293 24.9125 23.1307C24.6109 22.6321 24.18 22.2351 23.6199 21.9396C23.0659 21.6442 22.4073 21.4964 21.644 21.4964H17.4245V27.5533ZM17.4245 19.2713H21.247C21.8871 19.2713 22.4627 19.1482 22.9735 18.902C23.4906 18.6558 23.8999 18.3111 24.2015 17.8679C24.5093 17.4186 24.6632 16.8892 24.6632 16.2798C24.6632 15.4981 24.3893 14.8426 23.8414 14.3132C23.2936 13.7839 22.4534 13.5192 21.3208 13.5192H17.4245V19.2713Z" fill="black"/>
</svg>
