<svg width="105" height="80" viewBox="0 0 105 80" fill="none" xmlns="http://www.w3.org/2000/svg">
<rect x="1" y="43" width="103" height="36" stroke="black" stroke-width="2"/>
<path d="M8.81818 74V50.7273H16.6818C18.5076 50.7273 20 51.0568 21.1591 51.7159C22.3258 52.3674 23.1894 53.25 23.75 54.3636C24.3106 55.4773 24.5909 56.7197 24.5909 58.0909C24.5909 59.4621 24.3106 60.7083 23.75 61.8295C23.197 62.9508 22.3409 63.8447 21.1818 64.5114C20.0227 65.1705 18.5379 65.5 16.7273 65.5H11.0909V63H16.6364C17.8864 63 18.8902 62.7841 19.6477 62.3523C20.4053 61.9205 20.9545 61.3371 21.2955 60.6023C21.6439 59.8598 21.8182 59.0227 21.8182 58.0909C21.8182 57.1591 21.6439 56.3258 21.2955 55.5909C20.9545 54.8561 20.4015 54.2803 19.6364 53.8636C18.8712 53.4394 17.8561 53.2273 16.5909 53.2273H11.6364V74H8.81818ZM43.2107 74V50.7273H51.347C52.9683 50.7273 54.3054 51.0076 55.3584 51.5682C56.4114 52.1212 57.1955 52.8674 57.7107 53.8068C58.2258 54.7386 58.4834 55.7727 58.4834 56.9091C58.4834 57.9091 58.3054 58.7348 57.9493 59.3864C57.6008 60.0379 57.1387 60.553 56.563 60.9318C55.9948 61.3106 55.3774 61.5909 54.7107 61.7727V62C55.4228 62.0455 56.1387 62.2955 56.8584 62.75C57.5781 63.2045 58.1804 63.8561 58.6652 64.7045C59.1501 65.553 59.3925 66.5909 59.3925 67.8182C59.3925 68.9848 59.1274 70.0341 58.597 70.9659C58.0667 71.8977 57.2296 72.6364 56.0857 73.1818C54.9417 73.7273 53.4531 74 51.6198 74H43.2107ZM46.0289 71.5H51.6198C53.4607 71.5 54.7675 71.1439 55.5402 70.4318C56.3205 69.7121 56.7107 68.8409 56.7107 67.8182C56.7107 67.0303 56.5099 66.303 56.1084 65.6364C55.7069 64.9621 55.1349 64.4242 54.3925 64.0227C53.6501 63.6136 52.7713 63.4091 51.7561 63.4091H46.0289V71.5ZM46.0289 60.9545H51.2561C52.1046 60.9545 52.8698 60.7879 53.5516 60.4545C54.241 60.1212 54.7864 59.6515 55.188 59.0455C55.597 58.4394 55.8016 57.7273 55.8016 56.9091C55.8016 55.8864 55.4455 55.0189 54.7334 54.3068C54.0213 53.5871 52.8925 53.2273 51.347 53.2273H46.0289V60.9545ZM78.1032 74V50.7273H80.9214V71.5H91.7395V74H78.1032Z" fill="black"/>
<rect x="1" y="1" width="103" height="36" stroke="black" stroke-width="2"/>
<path d="M9.81818 31V7.72727H17.6818C19.5076 7.72727 21 8.05682 22.1591 8.71591C23.3258 9.36742 24.1894 10.25 24.75 11.3636C25.3106 12.4773 25.5909 13.7197 25.5909 15.0909C25.5909 16.4621 25.3106 17.7083 24.75 18.8295C24.197 19.9508 23.3409 20.8447 22.1818 21.5114C21.0227 22.1705 19.5379 22.5 17.7273 22.5H12.0909V20H17.6364C18.8864 20 19.8902 19.7841 20.6477 19.3523C21.4053 18.9205 21.9545 18.3371 22.2955 17.6023C22.6439 16.8598 22.8182 16.0227 22.8182 15.0909C22.8182 14.1591 22.6439 13.3258 22.2955 12.5909C21.9545 11.8561 21.4015 11.2803 20.6364 10.8636C19.8712 10.4394 18.8561 10.2273 17.5909 10.2273H12.6364V31H9.81818ZM44.2107 31V7.72727H52.347C53.9683 7.72727 55.3054 8.00758 56.3584 8.56818C57.4114 9.12121 58.1955 9.86742 58.7107 10.8068C59.2258 11.7386 59.4834 12.7727 59.4834 13.9091C59.4834 14.9091 59.3054 15.7348 58.9493 16.3864C58.6008 17.0379 58.1387 17.553 57.563 17.9318C56.9948 18.3106 56.3774 18.5909 55.7107 18.7727V19C56.4228 19.0455 57.1387 19.2955 57.8584 19.75C58.5781 20.2045 59.1804 20.8561 59.6652 21.7045C60.1501 22.553 60.3925 23.5909 60.3925 24.8182C60.3925 25.9848 60.1274 27.0341 59.597 27.9659C59.0667 28.8977 58.2296 29.6364 57.0857 30.1818C55.9417 30.7273 54.4531 31 52.6198 31H44.2107ZM47.0289 28.5H52.6198C54.4607 28.5 55.7675 28.1439 56.5402 27.4318C57.3205 26.7121 57.7107 25.8409 57.7107 24.8182C57.7107 24.0303 57.5099 23.303 57.1084 22.6364C56.7069 21.9621 56.1349 21.4242 55.3925 21.0227C54.6501 20.6136 53.7713 20.4091 52.7561 20.4091H47.0289V28.5ZM47.0289 17.9545H52.2561C53.1046 17.9545 53.8698 17.7879 54.5516 17.4545C55.241 17.1212 55.7864 16.6515 56.188 16.0455C56.597 15.4394 56.8016 14.7273 56.8016 13.9091C56.8016 12.8864 56.4455 12.0189 55.7334 11.3068C55.0213 10.5871 53.8925 10.2273 52.347 10.2273H47.0289V17.9545ZM79.1032 31V7.72727H81.9214V28.5H92.7395V31H79.1032Z" fill="black"/>
<circle cx="17.5" cy="18.5" r="16.5" stroke="black" stroke-width="2"/>
<circle cx="86.5" cy="18.5" r="16.5" stroke="black" stroke-width="2"/>
<path d="M69 19.5C69 28.5863 61.4156 36 52 36C42.5844 36 35 28.5863 35 19.5C35 10.4137 42.5844 3 52 3C61.4156 3 69 10.4137 69 19.5Z" stroke="black" stroke-width="2"/>
</svg>
