<svg width="215" height="45" viewBox="0 0 215 45" fill="none" xmlns="http://www.w3.org/2000/svg">
<rect x="0.5" y="0.5" width="134" height="44" stroke="black"/>
<path d="M134.5 1V44.5H0.5L134.5 1Z" fill="black"/>
<path d="M150.642 30V8.18182H163.724V10.5256H153.284V17.8977H162.744V20.2415H153.284V30H150.642ZM168.249 8.18182H171.403L178.818 26.2926H179.073L186.488 8.18182H189.642V30H187.17V13.4233H186.957L180.139 30H177.752L170.934 13.4233H170.721V30H168.249V8.18182ZM212.496 15H209.854C209.697 14.2401 209.424 13.5724 209.033 12.9972C208.65 12.4219 208.181 11.9389 207.627 11.5483C207.08 11.1506 206.473 10.8523 205.805 10.6534C205.138 10.4545 204.442 10.3551 203.717 10.3551C202.396 10.3551 201.2 10.6889 200.127 11.3565C199.062 12.0241 198.213 13.0078 197.581 14.3075C196.956 15.6072 196.643 17.2017 196.643 19.0909C196.643 20.9801 196.956 22.5746 197.581 23.8743C198.213 25.174 199.062 26.1577 200.127 26.8253C201.2 27.4929 202.396 27.8267 203.717 27.8267C204.442 27.8267 205.138 27.7273 205.805 27.5284C206.473 27.3295 207.08 27.0348 207.627 26.6442C208.181 26.2464 208.65 25.7599 209.033 25.1847C209.424 24.6023 209.697 23.9347 209.854 23.1818H212.496C212.297 24.2969 211.935 25.2947 211.409 26.1754C210.884 27.0561 210.23 27.8054 209.449 28.4233C208.668 29.0341 207.79 29.4993 206.817 29.8189C205.852 30.1385 204.818 30.2983 203.717 30.2983C201.857 30.2983 200.202 29.8438 198.753 28.9347C197.304 28.0256 196.164 26.733 195.333 25.0568C194.502 23.3807 194.087 21.392 194.087 19.0909C194.087 16.7898 194.502 14.8011 195.333 13.125C196.164 11.4489 197.304 10.1562 198.753 9.24716C200.202 8.33807 201.857 7.88352 203.717 7.88352C204.818 7.88352 205.852 8.04332 206.817 8.36293C207.79 8.68253 208.668 9.15128 209.449 9.76918C210.23 10.38 210.884 11.1257 211.409 12.0064C211.935 12.88 212.297 13.8778 212.496 15Z" fill="black"/>
</svg>
