<svg width="76" height="71" viewBox="0 0 76 71" fill="none" xmlns="http://www.w3.org/2000/svg">
<line y1="1.5" x2="76" y2="1.5" stroke="black" stroke-width="3"/>
<line y1="19.5" x2="76" y2="19.5" stroke="black" stroke-width="3"/>
<line x1="1.5" x2="1.5" y2="43" stroke="black" stroke-width="3"/>
<line x1="74.5" y1="2" x2="74.5" y2="45" stroke="black" stroke-width="3"/>
<path d="M74.5 44.5C74.5 60.2401 58.9868 69 38 69C17.0132 69 1.5 58.7401 1.5 43" stroke="black" stroke-width="3"/>
<path d="M40.5455 37.5455C40.4091 36.3939 39.8561 35.5 38.8864 34.8636C37.9167 34.2273 36.7273 33.9091 35.3182 33.9091C34.2879 33.9091 33.3864 34.0758 32.6136 34.4091C31.8485 34.7424 31.25 35.2008 30.8182 35.7841C30.3939 36.3674 30.1818 37.0303 30.1818 37.7727C30.1818 38.3939 30.3295 38.928 30.625 39.375C30.928 39.8144 31.3144 40.1818 31.7841 40.4773C32.2538 40.7652 32.7462 41.0038 33.2614 41.1932C33.7765 41.375 34.25 41.5227 34.6818 41.6364L37.0455 42.2727C37.6515 42.4318 38.3258 42.6515 39.0682 42.9318C39.8182 43.2121 40.5341 43.5947 41.2159 44.0795C41.9053 44.5568 42.4735 45.1705 42.9205 45.9205C43.3674 46.6705 43.5909 47.5909 43.5909 48.6818C43.5909 49.9394 43.2614 51.0758 42.6023 52.0909C41.9508 53.1061 40.9962 53.9129 39.7386 54.5114C38.4886 55.1098 36.9697 55.4091 35.1818 55.4091C33.5152 55.4091 32.072 55.1402 30.8523 54.6023C29.6402 54.0644 28.6856 53.3144 27.9886 52.3523C27.2992 51.3902 26.9091 50.2727 26.8182 49H29.7273C29.803 49.8788 30.0985 50.6061 30.6136 51.1818C31.1364 51.75 31.7955 52.1742 32.5909 52.4545C33.3939 52.7273 34.2576 52.8636 35.1818 52.8636C36.2576 52.8636 37.2235 52.6894 38.0795 52.3409C38.9356 51.9848 39.6136 51.4924 40.1136 50.8636C40.6136 50.2273 40.8636 49.4848 40.8636 48.6364C40.8636 47.8636 40.6477 47.2348 40.2159 46.75C39.7841 46.2652 39.2159 45.8712 38.5114 45.5682C37.8068 45.2652 37.0455 45 36.2273 44.7727L33.3636 43.9545C31.5455 43.4318 30.1061 42.6856 29.0455 41.7159C27.9848 40.7462 27.4545 39.4773 27.4545 37.9091C27.4545 36.6061 27.8068 35.4697 28.5114 34.5C29.2235 33.5227 30.178 32.7652 31.375 32.2273C32.5795 31.6818 33.9242 31.4091 35.4091 31.4091C36.9091 31.4091 38.2424 31.678 39.4091 32.2159C40.5758 32.7462 41.5 33.4735 42.1818 34.3977C42.8712 35.322 43.2348 36.3712 43.2727 37.5455H40.5455Z" fill="black"/>
</svg>
