<svg width="40" height="40" viewBox="0 0 40 40" fill="none" xmlns="http://www.w3.org/2000/svg">
<circle cx="20" cy="20" r="19" stroke="black" stroke-width="2"/>
<path d="M25.0244 16.0582C24.9259 15.1842 24.5197 14.5071 23.8057 14.027C23.0916 13.5407 22.193 13.2976 21.1096 13.2976C20.3341 13.2976 19.6631 13.4207 19.0969 13.6669C18.5306 13.907 18.0905 14.2393 17.7765 14.6641C17.4688 15.0826 17.3149 15.5597 17.3149 16.0952C17.3149 16.5445 17.4195 16.9323 17.6288 17.2585C17.8443 17.5848 18.1243 17.8587 18.469 18.0803C18.8199 18.2957 19.1953 18.4773 19.5954 18.625C19.9955 18.7666 20.3802 18.8835 20.7496 18.9759L22.5961 19.456C23.1994 19.6037 23.818 19.8037 24.452 20.0561C25.086 20.3085 25.6738 20.6409 26.2155 21.0533C26.7571 21.4657 27.1942 21.9766 27.5265 22.5859C27.8651 23.1953 28.0344 23.9247 28.0344 24.7741C28.0344 25.8452 27.7574 26.7962 27.2034 27.6271C26.6556 28.4581 25.8585 29.1136 24.8121 29.5938C23.7718 30.0739 22.5131 30.3139 21.0358 30.3139C19.6201 30.3139 18.3952 30.0893 17.3611 29.6399C16.327 29.1906 15.5175 28.5535 14.9328 27.7287C14.348 26.8977 14.0249 25.9129 13.9633 24.7741H16.8256C16.8809 25.4574 17.1025 26.0268 17.4903 26.4822C17.8843 26.9316 18.3859 27.267 18.9953 27.4886C19.6108 27.7041 20.2848 27.8118 21.0173 27.8118C21.8237 27.8118 22.5407 27.6856 23.1686 27.4332C23.8026 27.1747 24.3012 26.8177 24.6643 26.3622C25.0275 25.9006 25.2091 25.362 25.2091 24.7464C25.2091 24.1863 25.049 23.7277 24.729 23.3707C24.415 23.0137 23.9872 22.7183 23.4456 22.4844C22.9101 22.2505 22.3038 22.0443 21.6267 21.8658L19.3923 21.2564C17.8781 20.844 16.6778 20.2377 15.7915 19.4375C14.9113 18.6373 14.4711 17.5786 14.4711 16.2614C14.4711 15.1719 14.7666 14.2209 15.3575 13.4084C15.9484 12.5959 16.7486 11.965 17.7581 11.5156C18.7675 11.0601 19.9063 10.8324 21.1743 10.8324C22.4546 10.8324 23.5841 11.0571 24.5628 11.5064C25.5476 11.9557 26.3232 12.5743 26.8895 13.3622C27.4558 14.1439 27.7512 15.0426 27.7758 16.0582H25.0244Z" fill="black"/>
</svg>
