<svg width="189" height="61" viewBox="0 0 189 61" fill="none" xmlns="http://www.w3.org/2000/svg">
<line y1="29.5" x2="60" y2="29.5" stroke="black" stroke-width="3"/>
<line x1="129" y1="29.5" x2="189" y2="29.5" stroke="black" stroke-width="3"/>
<path d="M89.3182 19.8182C89.1136 18.0909 88.2841 16.75 86.8295 15.7955C85.375 14.8409 83.5909 14.3636 81.4773 14.3636C79.9318 14.3636 78.5795 14.6136 77.4205 15.1136C76.2727 15.6136 75.375 16.3011 74.7273 17.1761C74.0909 18.0511 73.7727 19.0455 73.7727 20.1591C73.7727 21.0909 73.9943 21.892 74.4375 22.5625C74.892 23.2216 75.4716 23.7727 76.1761 24.2159C76.8807 24.6477 77.6193 25.0057 78.392 25.2898C79.1648 25.5625 79.875 25.7841 80.5227 25.9545L84.0682 26.9091C84.9773 27.1477 85.9886 27.4773 87.1023 27.8977C88.2273 28.3182 89.3011 28.892 90.3239 29.6193C91.358 30.3352 92.2102 31.2557 92.8807 32.3807C93.5511 33.5057 93.8864 34.8864 93.8864 36.5227C93.8864 38.4091 93.392 40.1136 92.4034 41.6364C91.4261 43.1591 89.9943 44.3693 88.108 45.267C86.233 46.1648 83.9545 46.6136 81.2727 46.6136C78.7727 46.6136 76.608 46.2102 74.7784 45.4034C72.9602 44.5966 71.5284 43.4716 70.483 42.0284C69.4489 40.5852 68.8636 38.9091 68.7273 37H73.0909C73.2045 38.3182 73.6477 39.4091 74.4205 40.2727C75.2045 41.125 76.1932 41.7614 77.3864 42.1818C78.5909 42.5909 79.8864 42.7955 81.2727 42.7955C82.8864 42.7955 84.3352 42.5341 85.6193 42.0114C86.9034 41.4773 87.9205 40.7386 88.6705 39.7955C89.4205 38.8409 89.7955 37.7273 89.7955 36.4545C89.7955 35.2955 89.4716 34.3523 88.8239 33.625C88.1761 32.8977 87.3239 32.3068 86.267 31.8523C85.2102 31.3977 84.0682 31 82.8409 30.6591L78.5455 29.4318C75.8182 28.6477 73.6591 27.5284 72.0682 26.0739C70.4773 24.6193 69.6818 22.7159 69.6818 20.3636C69.6818 18.4091 70.2102 16.7045 71.267 15.25C72.3352 13.7841 73.767 12.6477 75.5625 11.8409C77.3693 11.0227 79.3864 10.6136 81.6136 10.6136C83.8636 10.6136 85.8636 11.017 87.6136 11.8239C89.3636 12.6193 90.75 13.7102 91.7727 15.0966C92.8068 16.483 93.3523 18.0568 93.4091 19.8182H89.3182Z" fill="black"/>
<path d="M102.818 53V29.7273H110.682C112.508 29.7273 114 30.0568 115.159 30.7159C116.326 31.3674 117.189 32.25 117.75 33.3636C118.311 34.4773 118.591 35.7197 118.591 37.0909C118.591 38.4621 118.311 39.7083 117.75 40.8295C117.197 41.9508 116.341 42.8447 115.182 43.5114C114.023 44.1705 112.538 44.5 110.727 44.5H105.091V42H110.636C111.886 42 112.89 41.7841 113.648 41.3523C114.405 40.9205 114.955 40.3371 115.295 39.6023C115.644 38.8598 115.818 38.0227 115.818 37.0909C115.818 36.1591 115.644 35.3258 115.295 34.5909C114.955 33.8561 114.402 33.2803 113.636 32.8636C112.871 32.4394 111.856 32.2273 110.591 32.2273H105.636V53H102.818Z" fill="black"/>
</svg>
