<svg width="69" height="71" viewBox="0 0 69 71" fill="none" xmlns="http://www.w3.org/2000/svg">
<line y1="7" x2="27" y2="7" stroke="black" stroke-width="2"/>
<line y1="65" x2="27" y2="65" stroke="black" stroke-width="2"/>
<line x1="14.4929" y1="0.99646" x2="14.4929" y2="70.0037" stroke="black" stroke-width="2"/>
<line x1="26" y1="6" x2="26" y2="66" stroke="black" stroke-width="2"/>
<line x1="26" y1="35" x2="69" y2="35" stroke="black" stroke-width="4"/>
<path d="M59.0051 29.8241L57.471 29.8286L51.1809 35.6081C50.4442 36.2864 49.8037 36.845 49.2596 37.2841C48.7097 37.7232 48.1936 38.0485 47.7112 38.2602C47.2232 38.4775 46.7122 38.5869 46.1781 38.5884C45.5644 38.5902 45.0328 38.444 44.5831 38.1499C44.1334 37.8614 43.7856 37.4647 43.5398 36.9597C43.2941 36.4547 43.1703 35.8869 43.1685 35.2562C43.1665 34.5858 43.304 34.0001 43.581 33.4993C43.8523 33.0042 44.2347 32.6196 44.7282 32.3454C45.2218 32.077 45.8009 31.9418 46.4657 31.9399L46.4599 29.9285C45.4372 29.9315 44.5401 30.1698 43.7688 30.6437C42.9974 31.1175 42.397 31.7613 41.9675 32.575C41.5381 33.3944 41.3248 34.3127 41.3277 35.3297C41.3307 36.3524 41.5492 37.258 41.9833 38.0466C42.4174 38.8351 43.0016 39.4527 43.7358 39.8995C44.4701 40.3462 45.2861 40.5683 46.1838 40.5657C46.8258 40.5639 47.4533 40.4456 48.0663 40.2108C48.6736 39.9818 49.3514 39.5821 50.0998 39.0118C50.8425 38.4472 51.7493 37.6633 52.8203 36.6602L57.0021 32.7277L57.1385 32.7273L57.1619 40.8409L59.0369 40.8355L59.0051 29.8241Z" fill="black"/>
</svg>
