<svg width="40" height="40" viewBox="0 0 40 40" fill="none" xmlns="http://www.w3.org/2000/svg">
<circle cx="20" cy="20" r="19" stroke="black" stroke-width="2"/>
<path d="M29.2231 17.2401H26.3424C26.2316 16.6245 26.0254 16.0829 25.7238 15.6151C25.4222 15.1473 25.0529 14.7502 24.6159 14.424C24.1788 14.0978 23.6895 13.8516 23.1478 13.6854C22.6123 13.5192 22.0429 13.4361 21.4397 13.4361C20.3502 13.4361 19.3746 13.71 18.5129 14.2578C17.6573 14.8056 16.9802 15.6089 16.4816 16.6676C15.9892 17.7263 15.743 19.0189 15.743 20.5455C15.743 22.0843 15.9892 23.383 16.4816 24.4418C16.9802 25.5005 17.6604 26.3007 18.5221 26.8423C19.3838 27.384 20.3533 27.6548 21.4305 27.6548C22.0276 27.6548 22.5938 27.5748 23.1294 27.4148C23.671 27.2486 24.1604 27.0054 24.5974 26.6854C25.0344 26.3653 25.4037 25.9744 25.7053 25.5128C26.0131 25.045 26.2255 24.5095 26.3424 23.9062L29.2231 23.9155C29.0692 24.8449 28.7707 25.7005 28.3275 26.4822C27.8905 27.2578 27.3273 27.9287 26.6379 28.495C25.9546 29.0552 25.1729 29.4891 24.2927 29.7969C23.4125 30.1046 22.4523 30.2585 21.412 30.2585C19.7747 30.2585 18.3159 29.8707 17.0356 29.0952C15.7553 28.3134 14.7458 27.1963 14.0072 25.7436C13.2747 24.291 12.9085 22.5582 12.9085 20.5455C12.9085 18.5265 13.2778 16.7938 14.0164 15.3473C14.7551 13.8946 15.7645 12.7805 17.0448 12.005C18.3251 11.2232 19.7809 10.8324 21.412 10.8324C22.4153 10.8324 23.3509 10.977 24.2188 11.2663C25.0929 11.5495 25.8777 11.968 26.5732 12.522C27.2688 13.0698 27.8443 13.7408 28.2998 14.5348C28.7553 15.3227 29.0631 16.2244 29.2231 17.2401Z" fill="black"/>
</svg>
