<svg width="35" height="68" viewBox="0 0 35 68" fill="none" xmlns="http://www.w3.org/2000/svg">
<path d="M33 52C33 60.228 25.8945 67 17 67C8.10546 67 1 60.228 1 52C1 43.772 8.10546 37 17 37C25.8945 37 33 43.772 33 52Z" stroke="black" stroke-width="2"/>
<path d="M34 16C34 24.228 26.8945 31 18 31C9.10546 31 2 24.228 2 16C2 7.77198 9.10546 1 18 1C26.8945 1 34 7.77198 34 16Z" stroke="black" stroke-width="2"/>
<path d="M26.655 41.2544C28.4999 42.6222 29.7937 44.7476 30.7104 48H30.6822H30.6043H30.5269H30.45H30.3736H30.2977H30.2224H30.1475H30.0731H29.9992H29.9259H29.853H29.7806H29.7087H29.6373H29.5664H29.4959H29.426H29.3565H29.2875H29.219H29.151H29.0834H29.0163H28.9497H28.8835H28.8179H28.7526H28.6879H28.6236H28.5598H28.4964H28.4335H28.371H28.309H28.2474H28.1863H28.1256H28.0654H28.0056H27.9463H27.8874H27.8289H27.7709H27.7133H27.6562H27.5994H27.5431H27.4872H27.4318H27.3768H27.3221H27.2679H27.2142H27.1608H27.1079H27.0553H27.0032H26.9515H26.9002H26.8492H26.7987H26.7486H26.6989H26.6496H26.6007H26.5522H26.504H26.4563H26.4089H26.3619H26.3153H26.2691H26.2233H26.1778H26.1328H26.0881H26.0437H25.9998H25.9562H25.9129H25.8701H25.8276H25.7854H25.7437H25.7022H25.6612H25.6205H25.5801H25.5401H25.5004H25.4611H25.4221H25.3835H25.3452H25.3072H25.2696H25.2323H25.1954H25.1588H25.1225H25.0865H25.0509H25.0156H24.9806H24.9459H24.9116H24.8775H24.8438H24.8104H24.7773H24.7445H24.712H24.6798H24.648H24.6164H24.5851H24.5541H24.5235H24.4931H24.463H24.4332H24.4036H24.3744H24.3455H24.3168H24.2884H24.2603H24.2325H24.2049H24.1777H24.1507H24.1239H24.0975H24.0713H24.0453H24.0196H23.9942H23.9691H23.9442H23.9195H23.8951H23.871H23.8471H23.8234H23.8H23.7769H23.754H23.7313H23.7089H23.6867H23.6647H23.643H23.6215H23.6002H23.5791H23.5583H23.5377H23.5173H23.4972H23.4772H23.4575H23.438H23.4187H23.3996H23.3807H23.362H23.3436H23.3253H23.3072H23.2894H23.2717H23.2542H23.2369H23.2198H23.2029H23.1862H23.1697H23.1534H23.1372H23.1212H23.1054H23.0898H23.0743H23.059H23.0439H23.029H23.0142H22.9996H22.9852H22.9709H22.9568H22.9428H22.929H22.9153H22.9018H22.8885H22.8753H22.8622H22.8493H22.8366H22.8239H22.8114H22.7991H22.7869H22.7748H22.7628H22.751H22.7393H22.7278H22.7163H22.705H22.6938H22.6827H22.6718H22.6609H22.6502H22.6396H22.6291H22.6187H22.6084H22.5982H22.5881H22.5781H22.5682H22.5584H22.5487H22.5391H22.5296H22.5202H22.5108H22.5016H22.4924H22.4833H22.4743H22.4653H22.4565H22.4477H22.439H22.4303H22.4218H22.4133H22.4048H22.3965H22.3881H22.3799H22.3717H22.3635H22.3554H22.3474H22.3394H22.3315H22.3236H22.3157H22.3079H22.3002H22.2924H22.2847H22.2771H22.2695H22.2619H22.2543H22.2468H22.2393H22.2318H22.2243H22.2169H22.2094H22.202H22.1946H22.1873H22.1799H22.1725H22.1652H22.1578H22.1505H22.1431H22.1358H22.1284H22.1211H22.1137H22.1064H22.099H22.0916H22.0842H22.0768H22.0694H22.0619H22.0544H22.047H22.0394H22.0319H22.0243H22.0167H22.0091H22.0014H21.9937H21.986H21.9782H21.9704H21.9625H21.9546H21.9466H21.9386H21.9306H21.9225H21.9143H21.9061H21.8978H21.8895H21.8811H21.8726H21.8641H21.8555H21.8468H21.8381H21.8293H21.8204H21.8114H21.8024H21.7933H21.7841H21.7748H21.7654H21.7559H21.7464H21.7368H21.727H21.7172H21.7073H21.6972H21.6871H21.6769H21.6665H21.6561H21.6456H21.6349H21.6241H21.6132H21.6022H21.5911H21.5799H21.5685H21.557H21.5454H21.5337H21.5218H21.5098H21.4977H21.4855H21.4731H21.4605H21.4479H21.435H21.4221H21.409H21.3957H21.3823H21.3688H21.3551H21.3412H21.3272H21.313H21.2987H21.2842H21.2695H21.2547H21.2397H21.2245H21.2092H21.1936H21.178H21.1621H21.146H21.1298H21.1134H21.0968H21.08H21.0631H21.0459H21.0286H21.011H20.9933H20.9753H20.9572H20.9389H20.9203H20.9016H20.8826H20.8635H20.8441H20.8245H20.8047H20.7847H20.7645H20.744H20.7233H20.7024H20.6813H20.6599H20.6384H20.6165H20.5945H20.5722H20.5497H20.5269H20.5039H20.4807H20.4572H20.4335H20.4095H20.3853H20.3608H20.3361H20.3111H20.2858H20.2603H20.2346H20.2085H20.1822H20.1557H20.1288H20.1017H20.0744H20.0467H20.0188H19.9906H19.9621H19.9334H19.9043H19.875H19.8454H19.8155H19.7853H19.7548H19.724H19.6929H19.6615H19.6299H19.5979H19.5656H19.533H19.5001H19.4669H19.4334H19.3996H19.3654H19.331H19.2962H19.2611H19.2257H19.1899H19.1538H19.1174H19.0807H19.0436H19.0062H18.9685H18.9304H18.892H18.8533H18.8142H18.7747H18.735H18.6948H18.6543H18.6135H18.5723H18.5308H18.4889H18.4466H18.404H18.361H18.3176H18.2739H18.2298H18.1854H18.1405H18.0953H18.0497H18.0038H17.9574H17.9107H17.8636H17.8161H17.7682H17.7199H17.6713H17.6222H17.5728H17.5229H17.4727H17.422H17.371H17.3195H17.2677H17.2154H17.1631H17.1113H17.0598H17.0087H16.9581H16.9079H16.858H16.8085H16.7595H16.7108H16.6625H16.6147H16.5672H16.52H16.4733H16.427H16.381H16.3354H16.2902H16.2453H16.2009H16.1568H16.113H16.0696H16.0266H15.984H15.9417H15.8998H15.8582H15.817H15.7761H15.7356H15.6954H15.6556H15.6161H15.577H15.5382H15.4998H15.4616H15.4239H15.3864H15.3493H15.3125H15.276H15.2399H15.2041H15.1686H15.1334H15.0986H15.064H15.0298H14.9959H14.9623H14.929H14.896H14.8633H14.8309H14.7988H14.767H14.7355H14.7043H14.6734H14.6428H14.6125H14.5825H14.5527H14.5232H14.4941H14.4651H14.4365H14.4081H14.3801H14.3523H14.3247H14.2974H14.2704H14.2437H14.2172H14.191H14.165H14.1393H14.1138H14.0886H14.0637H14.0389H14.0145H13.9903H13.9663H13.9426H13.9191H13.8958H13.8728H13.85H13.8274H13.8051H13.783H13.7611H13.7394H13.718H13.6968H13.6758H13.655H13.6344H13.6141H13.5939H13.574H13.5542H13.5347H13.5154H13.4962H13.4773H13.4586H13.44H13.4217H13.4035H13.3856H13.3678H13.3502H13.3328H13.3155H13.2985H13.2816H13.2649H13.2484H13.232H13.2158H13.1998H13.1839H13.1682H13.1527H13.1373H13.1221H13.107H13.0921H13.0774H13.0628H13.0483H13.034H13.0198H13.0058H12.9919H12.9782H12.9646H12.9511H12.9377H12.9245H12.9114H12.8985H12.8857H12.873H12.8604H12.8479H12.8355H12.8233H12.8112H12.7992H12.7873H12.7755H12.7638H12.7522H12.7407H12.7293H12.7181H12.7069H12.6958H12.6848H12.6739H12.663H12.6523H12.6416H12.6311H12.6206H12.6102H12.5998H12.5896H12.5794H12.5693H12.5592H12.5492H12.5393H12.5295H12.5197H12.51H12.5003H12.4907H12.4811H12.4716H12.4621H12.4527H12.4434H12.434H12.4247H12.4155H12.4063H12.3971H12.388H12.3789H12.3698H12.3608H12.3518H12.3428H12.3338H12.3249H12.3159H12.307H12.2981H12.2893H12.2804H12.2715H12.2627H12.2538H12.245H12.2361H12.2273H12.2185H12.2096H12.2008H12.1919H12.183H12.1741H12.1652H12.1563H12.1474H12.1384H12.1295H12.1205H12.1114H12.1024H12.0933H12.0842H12.0751H12.0659H12.0567H12.0474H12.0381H12.0288H12.0194H12.01H12.0005H11.991H11.9814H11.9718H11.9621H11.9523H11.9425H11.9327H11.9227H11.9127H11.9027H11.8925H11.8823H11.872H11.8617H11.8513H11.8407H11.8301H11.8195H11.8087H11.7979H11.7869H11.7759H11.7648H11.7536H11.7422H11.7308H11.7193H11.7077H11.696H11.6842H11.6722H11.6602H11.648H11.6358H11.6234H11.6109H11.5983H11.5855H11.5727H11.5597H11.5466H11.5333H11.5199H11.5064H11.4928H11.479H11.4651H11.451H11.4368H11.4224H11.4079H11.3933H11.3785H11.3635H11.3484H11.3332H11.3178H11.3022H11.2864H11.2705H11.2545H11.2382H11.2218H11.2052H11.1885H11.1715H11.1544H11.1372H11.1197H11.102H11.0842H11.0662H11.048H11.0296H11.011H10.9922H10.9732H10.954H10.9346H10.915H10.8952H10.8752H10.855H10.8346H10.814H10.7931H10.7721H10.7508H10.7293H10.7076H10.6856H10.6635H10.6411H10.6184H10.5956H10.5725H10.5492H10.5256H10.5018H10.4778H10.4535H10.4289H10.4042H10.3791H10.3539H10.3283H10.3026H10.2765H10.2502H10.2237H10.1968H10.1697H10.1424H10.1148H10.0869H10.0587H10.0303H10.0016H9.97259H9.94332H9.91377H9.88394H9.85382H9.82342H9.79272H9.76174H9.73046H9.69889H9.66702H9.63485H9.60238H9.56961H9.53653H9.50315H9.46945H9.43545H9.40114H9.36651H9.33156H9.2963H9.26072H9.22481H9.18859H9.15203H9.11515H9.07794H9.0404H9.00252H8.96431H8.92576H8.88687H8.84764H8.80807H8.76815H8.72789H8.68727H8.64631H8.60499H8.56332H8.52129H8.47891H8.43616H8.39305H8.34958H8.30574H8.26153H8.21695H8.172H8.12668H8.08098H8.0349H7.98845H7.94161H7.89438H7.84678H7.79878H7.7504H7.70162H7.65245H7.60289H7.55293H7.50257H7.45181H7.40065H7.34908H7.2971H7.24472H7.19193H7.13872H7.0851H7.03106H6.97661H6.92173H6.86644H6.81072H6.75457H6.698H6.64099H6.58355H6.52568H6.46738H6.40864H6.34945H6.28983H6.22976H6.16925H6.10829H6.04689H5.98503H5.92272H5.85995H5.79673H5.73305H5.6689H5.6043H5.53923H5.47369H5.40769H5.34122H5.27427H5.20685H5.13895H5.07058H5.00173H4.93239H4.86257H4.79227H4.72147H4.65019H4.57842H4.50615H4.43339H4.36013H4.28637H4.21211H4.13735H4.06209H3.98631H3.91003H3.83324H3.75593H3.67811H3.59978H3.52092H3.44155H3.36165H3.28123H3.20028H3.1188H3.0368H2.95426H2.87119H2.78759H2.77158C5.12933 44.1356 6.68026 41.9852 8.46925 40.7321C10.4109 39.372 12.7484 39 17.2154 39C21.6121 39 24.572 39.7099 26.655 41.2544Z" fill="black" stroke="black" stroke-width="2"/>
<path d="M0 52H32V57.2941L30.0606 62H3.87879L1.45455 57.8824L0 52Z" fill="black"/>
</svg>
